<?xml version="1.0" encoding="UTF-8"?>
<!-- Generator: Adobe Illustrator 22.1.0, SVG Export Plug-In . SVG Version: 6.00 Build 0)  -->
<svg version="1.1" id="Layer_1" xmlns="http://www.w3.org/2000/svg" xmlns:xlink="http://www.w3.org/1999/xlink" x="0px" y="0px" width="170px" height="194.1px" viewBox="0 0 170 194.1" style="enable-background:new 0 0 170 194.1;" xml:space="preserve">
<style type="text/css">
	.st0{filter:url(#Adobe_OpacityMaskFilter);}
	.st1{fill:#FFFFFF;}
	.st2{mask:url(#mask-2_9_);}
	.st3{filter:url(#Adobe_OpacityMaskFilter_1_);}
	.st4{mask:url(#mask-4_9_);}
	.st5{filter:url(#Adobe_OpacityMaskFilter_2_);}
	.st6{mask:url(#mask-2_8_);}
	.st7{filter:url(#Adobe_OpacityMaskFilter_3_);}
	.st8{mask:url(#mask-4_8_);}
	.st9{filter:url(#Adobe_OpacityMaskFilter_4_);}
	.st10{mask:url(#mask-2_15_);fill:#FFFFFF;}
	.st11{filter:url(#Adobe_OpacityMaskFilter_5_);}
	.st12{mask:url(#mask-4_15_);fill:#FFFFFF;}
	.st13{filter:url(#Adobe_OpacityMaskFilter_6_);}
	.st14{mask:url(#mask-2_17_);fill:#FFFFFF;}
	.st15{filter:url(#Adobe_OpacityMaskFilter_7_);}
	.st16{mask:url(#mask-4_17_);fill:#FFFFFF;}
	.st17{filter:url(#Adobe_OpacityMaskFilter_8_);}
	.st18{mask:url(#mask-2_7_);}
	.st19{fill:#034482;}
	.st20{filter:url(#Adobe_OpacityMaskFilter_9_);}
	.st21{mask:url(#mask-4_7_);}
	.st22{fill:#045FB4;}
	.st23{fill:#2E8AE8;}
	.st24{fill:none;}
	.st25{filter:url(#Adobe_OpacityMaskFilter_10_);}
	.st26{mask:url(#mask-2_6_);}
	.st27{filter:url(#Adobe_OpacityMaskFilter_11_);}
	.st28{mask:url(#mask-4_6_);}
</style>
<g>
	<path class="st1" d="M141.3,104.6l-20.2,11.6l0,28.4l20.5-11.5c2.5-1.4,4-4,4-6.8v-19.3c0-0.5-0.1-1-0.4-1.4   C144.5,104.3,142.7,103.8,141.3,104.6z"/>
	<path class="st1" d="M170,53.4l-81.2,46.9v93.8l81.2-46.9V53.4z M157.9,130.6c0,4.8-2.6,9.3-6.7,11.7l-44,25.4v-59.2L148,85   c1-0.6,2.2-0.9,3.3-0.9c3.7,0,6.6,3,6.6,6.7V130.6z"/>
	<path class="st1" d="M166.2,46.9L85,0L3.8,46.9L85,93.8L166.2,46.9z M75.5,48.6c-9.1,0-16.5-4.2-16.5-9.2c0-5.1,7.4-9.2,16.5-9.2   c9.1,0,16.5,4.1,16.5,9.2c0,1-0.3,2-0.8,2.9l25,9.2L99,61.3l-19.9-13C77.9,48.5,76.7,48.6,75.5,48.6z"/>
	<path class="st1" d="M0,53.4v93.8l81.2,46.9v-93.8L0,53.4z M62.6,165.8l-45.4-26.2V125l31.1,18v-6.7l-31.1-17.9V82.9l45.4,26.2   l0,14.2l-33.1-19.1v6.7l33.1,19.1V165.8z"/>
</g>
</svg>