<?xml version="1.0" encoding="UTF-8" standalone="no"?>
<!-- Generator: Adobe Illustrator 22.1.0, SVG Export Plug-In . SVG Version: 6.00 Build 0)  -->

<svg
   xmlns:dc="http://purl.org/dc/elements/1.1/"
   xmlns:cc="http://creativecommons.org/ns#"
   xmlns:rdf="http://www.w3.org/1999/02/22-rdf-syntax-ns#"
   xmlns:svg="http://www.w3.org/2000/svg"
   xmlns="http://www.w3.org/2000/svg"
   xmlns:sodipodi="http://sodipodi.sourceforge.net/DTD/sodipodi-0.dtd"
   xmlns:inkscape="http://www.inkscape.org/namespaces/inkscape"
   version="1.1"
   id="Layer_1"
   x="0px"
   y="0px"
   width="375"
   height="103"
   viewBox="0 0 374.99999 103"
   xml:space="preserve"
   sodipodi:docname="logo-text.svg"
   inkscape:export-filename="/home/anxhelo/securedrop-styleguide/assets/images/logo-text-white.png"
   inkscape:export-xdpi="96"
   inkscape:export-ydpi="96"
   inkscape:version="0.92.3 (2405546, 2018-03-11)"><metadata
   id="metadata70"><rdf:RDF><cc:Work
       rdf:about=""><dc:format>image/svg+xml</dc:format><dc:type
         rdf:resource="http://purl.org/dc/dcmitype/StillImage" /><dc:title></dc:title></cc:Work></rdf:RDF></metadata><defs
   id="defs68" /><sodipodi:namedview
   pagecolor="#ffffff"
   bordercolor="#666666"
   borderopacity="1"
   objecttolerance="10"
   gridtolerance="10"
   guidetolerance="10"
   inkscape:pageopacity="0"
   inkscape:pageshadow="2"
   inkscape:window-width="1366"
   inkscape:window-height="715"
   id="namedview66"
   showgrid="false"
   inkscape:zoom="1.0790947"
   inkscape:cx="247.02417"
   inkscape:cy="43.31612"
   inkscape:window-x="0"
   inkscape:window-y="0"
   inkscape:window-maximized="1"
   inkscape:current-layer="Layer_1" />
<style
   type="text/css"
   id="style2">
	.st0{filter:url(#Adobe_OpacityMaskFilter);}
	.st1{fill:#FFFFFF;}
	.st2{mask:url(#mask-2_9_);}
	.st3{filter:url(#Adobe_OpacityMaskFilter_1_);}
	.st4{mask:url(#mask-4_9_);}
	.st5{filter:url(#Adobe_OpacityMaskFilter_2_);}
	.st6{mask:url(#mask-2_8_);}
	.st7{filter:url(#Adobe_OpacityMaskFilter_3_);}
	.st8{mask:url(#mask-4_8_);}
	.st9{filter:url(#Adobe_OpacityMaskFilter_4_);}
	.st10{mask:url(#mask-2_15_);fill:#FFFFFF;}
	.st11{filter:url(#Adobe_OpacityMaskFilter_5_);}
	.st12{mask:url(#mask-4_15_);fill:#FFFFFF;}
	.st13{filter:url(#Adobe_OpacityMaskFilter_6_);}
	.st14{mask:url(#mask-2_17_);fill:#FFFFFF;}
	.st15{filter:url(#Adobe_OpacityMaskFilter_7_);}
	.st16{mask:url(#mask-4_17_);fill:#FFFFFF;}
	.st17{filter:url(#Adobe_OpacityMaskFilter_8_);}
	.st18{mask:url(#mask-2_7_);}
	.st19{fill:#034482;}
	.st20{filter:url(#Adobe_OpacityMaskFilter_9_);}
	.st21{mask:url(#mask-4_7_);}
	.st22{fill:#045FB4;}
	.st23{fill:#2E8AE8;}
	.st24{fill:none;}
	.st25{filter:url(#Adobe_OpacityMaskFilter_10_);}
	.st26{mask:url(#mask-2_6_);}
	.st27{filter:url(#Adobe_OpacityMaskFilter_11_);}
	.st28{mask:url(#mask-4_6_);}
</style>
<g
   id="g63"
   transform="matrix(0.52736275,0,0,0.52736275,0,0.63889023)"
   style="fill:#ffffff">
	<g
   id="Symbols_10_"
   style="fill:#ffffff">
		<g
   id="g52"
   style="fill:#ffffff">
			<g
   id="Logo_x2F_White-Text_18_"
   style="fill:#ffffff">
				<g
   id="SD-Logo_18_"
   style="fill:#ffffff">
					<g
   id="Group-3_18_"
   transform="translate(0,0.6334)"
   style="fill:#ffffff">
						<defs
   id="defs7">
							<filter
   id="Adobe_OpacityMaskFilter"
   filterUnits="userSpaceOnUse"
   x="217.89999"
   y="42.799999"
   width="43.400002"
   height="107">
								<feColorMatrix
   type="matrix"
   values="1 0 0 0 0  0 1 0 0 0  0 0 1 0 0  0 0 0 1 0"
   id="feColorMatrix4" />
							</filter>
						</defs>
						<mask
   maskUnits="userSpaceOnUse"
   x="217.9"
   y="42.8"
   width="43.4"
   height="107"
   id="mask-2_15_">
							<g
   class="st0"
   id="g10"
   style="filter:url(#Adobe_OpacityMaskFilter)">
								<polygon
   id="path-1_15_"
   class="st1"
   points="261.4,42.8 261.4,149.7 217.9,149.7 217.9,42.8 "
   style="fill:#ffffff" />
							</g>
						</mask>
						<path
   id="Fill-1_20_"
   class="st10"
   d="m 249.8,44.3 c 2.3,1 4.3,2.3 6,4 1.7,1.7 3,3.7 4,6 1,2.3 1.5,4.7 1.5,7.3 v 5.7 c 0,1.4 -0.6,2.3 -1.9,2.7 l -13.6,3.6 c -1.3,0.4 -1.9,-0.1 -1.9,-1.5 v -9.7 c 0,-1 -0.4,-1.8 -1,-2.5 -0.7,-0.7 -1.5,-1 -2.5,-1 h -1.2 c -1,0 -1.8,0.4 -2.5,1 -0.7,0.7 -1,1.6 -1,2.5 V 76 c 0.1,1.1 0.3,2 0.6,2.8 0.3,0.8 0.8,1.6 1.6,2.4 L 257.3,96 c 1.6,1.4 2.6,2.8 3.1,4.3 0.5,1.4 0.8,3.1 1,4.9 V 131 c 0,2.6 -0.5,5 -1.5,7.3 -1,2.3 -2.3,4.3 -4,6 -1.7,1.7 -3.7,3 -6,4 -2.3,1 -4.7,1.5 -7.3,1.5 h -5.7 c -2.6,0 -5,-0.5 -7.3,-1.5 -2.3,-1 -4.3,-2.3 -6,-4 -1.7,-1.7 -3,-3.7 -4,-6 -1,-2.3 -1.5,-4.7 -1.5,-7.3 v -14.4 c 0,-1.4 0.6,-2.3 1.9,-2.7 l 13.6,-3.6 c 1.3,-0.4 1.9,0.1 1.9,1.5 v 18.4 c 0,1 0.3,1.8 1,2.5 0.7,0.7 1.5,1 2.5,1 h 1.2 c 1,0 1.8,-0.3 2.5,-1 0.7,-0.7 1,-1.5 1,-2.5 v -19.8 c -0.1,-1.3 -0.3,-2.4 -0.6,-3.4 -0.3,-1 -0.9,-1.9 -1.8,-2.7 L 222,89.5 c -1.5,-1.4 -2.6,-2.8 -3.2,-4.2 -0.7,-1.4 -1,-3.2 -1,-5.5 v -18 c 0,-2.6 0.5,-5 1.5,-7.3 1,-2.3 2.3,-4.3 4,-6 1.7,-1.7 3.7,-3 6,-4 2.3,-1 4.7,-1.5 7.3,-1.5 h 5.7 c 2.8,-0.2 5.2,0.3 7.5,1.3"
   mask="url(#mask-2_15_)"
   inkscape:connector-curvature="0"
   style="fill:#ffffff" />
					</g>
					<path
   id="Fill-4_20_"
   class="st1"
   d="m 305.3,133.9 v 13.3 c 0,1.4 -0.7,2.1 -2.1,2.1 h -32.5 c -1.4,0 -2.1,-0.7 -2.1,-2.1 V 46.5 c 0,-1.4 0.7,-2.1 2.1,-2.1 h 32.5 c 1.4,0 2.1,0.7 2.1,2.1 v 13.3 c 0,1.4 -0.7,2.1 -2.1,2.1 h -17.1 v 21.6 h 14.8 c 1.4,0 2.1,0.7 2.1,2.1 V 99 c 0,1.4 -0.7,2.1 -2.1,2.1 h -14.8 v 30.7 h 17.1 c 1.4,0 2.1,0.7 2.1,2.1"
   inkscape:connector-curvature="0"
   style="fill:#ffffff" />
					<g
   id="Group-8_18_"
   transform="translate(61,0.6334)"
   style="fill:#ffffff">
						<defs
   id="defs19">
							<filter
   id="Adobe_OpacityMaskFilter_1_"
   filterUnits="userSpaceOnUse"
   x="251.5"
   y="42.799999"
   width="43.400002"
   height="107">
								<feColorMatrix
   type="matrix"
   values="1 0 0 0 0  0 1 0 0 0  0 0 1 0 0  0 0 0 1 0"
   id="feColorMatrix16" />
							</filter>
						</defs>
						<mask
   maskUnits="userSpaceOnUse"
   x="251.5"
   y="42.8"
   width="43.4"
   height="107"
   id="mask-4_15_">
							<g
   class="st3"
   id="g22"
   style="filter:url(#Adobe_OpacityMaskFilter_1_)">
								<polygon
   id="path-3_15_"
   class="st1"
   points="294.9,42.8 294.9,149.7 251.5,149.7 251.5,42.8 "
   style="fill:#ffffff" />
							</g>
						</mask>
						<path
   id="Fill-6_20_"
   class="st12"
   d="m 283.4,44.3 c 2.3,1 4.3,2.3 6,4 1.7,1.7 3,3.7 4,6 1,2.3 1.5,4.7 1.5,7.3 v 12 c 0,1.4 -0.7,2.3 -1.9,2.7 l -13.6,2.1 c -1.3,0.4 -1.9,-0.1 -1.9,-1.5 V 62.4 c 0,-1 -0.4,-1.8 -1.1,-2.5 -0.7,-0.7 -1.6,-1 -2.5,-1 h -1.2 c -1,0 -1.8,0.4 -2.5,1 -0.7,0.7 -1,1.6 -1,2.5 v 67.7 c 0,1 0.3,1.8 1,2.5 0.7,0.7 1.5,1 2.5,1 h 1.2 c 1,0 1.8,-0.3 2.5,-1 0.7,-0.7 1.1,-1.5 1.1,-2.5 v -21 c 0,-1.4 0.6,-1.9 1.9,-1.5 l 13.6,1.8 c 1.3,0.4 1.9,1.3 1.9,2.7 v 18.7 c 0,2.6 -0.5,5 -1.5,7.3 -1,2.3 -2.4,4.3 -4,6 -1.7,1.7 -3.7,3 -6,4 -2.3,1 -4.7,1.5 -7.3,1.5 h -5.7 c -2.6,0 -5,-0.5 -7.3,-1.5 -2.3,-1 -4.3,-2.3 -6,-4 -1.7,-1.7 -3,-3.7 -4,-6 -1,-2.3 -1.5,-4.7 -1.5,-7.3 V 61.6 c 0,-2.6 0.5,-5 1.5,-7.3 1,-2.3 2.3,-4.3 4,-6 1.7,-1.7 3.7,-3 6,-4 2.3,-1 4.7,-1.5 7.3,-1.5 h 5.7 c 2.5,0 5,0.5 7.3,1.5"
   mask="url(#mask-4_15_)"
   inkscape:connector-curvature="0"
   style="fill:#ffffff" />
					</g>
					<path
   id="Fill-9_20_"
   class="st1"
   d="m 405.1,46.5 v 85 c 0,2.6 -0.5,5 -1.5,7.3 -1,2.3 -2.3,4.3 -4,6 -1.7,1.7 -3.7,3 -6,4 -2.3,1 -4.7,1.5 -7.3,1.5 h -5.7 c -2.6,0 -5,-0.5 -7.3,-1.5 -2.3,-1 -4.3,-2.3 -6,-4 -1.7,-1.7 -3,-3.7 -4,-6 -1,-2.3 -1.5,-4.7 -1.5,-7.3 v -85 c 0,-1.4 0.7,-2.1 2.1,-2.1 H 377 c 1.4,0 2.1,0.7 2.1,2.1 v 84.2 c 0,1 0.3,1.8 1,2.5 0.7,0.7 1.5,1 2.5,1 h 1.2 c 1,0 1.8,-0.3 2.5,-1 0.7,-0.7 1,-1.5 1,-2.5 V 46.5 c 0,-1.4 0.7,-2.1 2.1,-2.1 H 403 c 1.4,0 2.1,0.7 2.1,2.1"
   inkscape:connector-curvature="0"
   style="fill:#ffffff" />
					<path
   id="Fill-11_20_"
   class="st1"
   d="m 430.5,90.6 h 4.8 c 1,0 1.8,-0.3 2.5,-1 0.7,-0.7 1,-1.5 1,-2.5 v -23 c 0,-1 -0.4,-1.8 -1,-2.5 -0.7,-0.7 -1.6,-1.1 -2.5,-1.1 h -4.8 z m 28.9,56.6 c 0.3,1.4 -0.2,2.1 -1.5,2.1 h -13.6 c -0.6,0 -1.2,-0.2 -1.7,-0.6 -0.6,-0.4 -0.9,-0.9 -1.1,-1.5 l -10.9,-36.7 v 38.8 l -0.2,-1.5 c -0.2,1 -0.8,1.5 -1.9,1.5 h -13.3 c -1.4,0 -2.1,-0.7 -2.1,-2.1 V 46.5 c 0,-1.4 0.7,-2.1 2.1,-2.1 h 22.5 c 2.6,0 5,0.5 7.3,1.5 2.3,1 4.3,2.3 6,4 1.7,1.7 3,3.7 4,6 1,2.3 1.5,4.7 1.5,7.3 v 24.4 c 0,3.7 -1,7 -2.8,10 -1.9,2.9 -4.4,5.2 -7.5,6.8 z"
   inkscape:connector-curvature="0"
   style="fill:#ffffff" />
					<path
   id="Fill-13_20_"
   class="st1"
   d="m 502,133.9 v 13.3 c 0,1.4 -0.7,2.1 -2.1,2.1 h -32.5 c -1.4,0 -2.1,-0.7 -2.1,-2.1 V 46.5 c 0,-1.4 0.7,-2.1 2.1,-2.1 h 32.5 c 1.4,0 2.1,0.7 2.1,2.1 v 13.3 c 0,1.4 -0.7,2.1 -2.1,2.1 h -17.1 v 21.6 h 14.8 c 1.4,0 2.1,0.7 2.1,2.1 V 99 c 0,1.4 -0.7,2.1 -2.1,2.1 h -14.8 v 30.7 h 17.1 c 1.4,0 2.1,0.7 2.1,2.1"
   inkscape:connector-curvature="0"
   style="fill:#ffffff" />
					<g
   id="Fill-15_23_"
   style="fill:#ffffff">
						<g
   id="g32"
   style="fill:#ffffff">
							<path
   class="st1"
   d="m 536.6,64.1 c 0,-1 -0.4,-1.8 -1.1,-2.5 -0.7,-0.7 -1.5,-1.1 -2.5,-1.1 h -4.8 v 72.8 h 4.8 c 1,0 1.8,-0.4 2.5,-1 0.7,-0.7 1.1,-1.5 1.1,-2.5 z m -1.4,-19.7 c 2.6,0 5,0.5 7.3,1.5 2.3,1 4.3,2.4 6,4 1.7,1.7 3,3.7 4,6 1,2.3 1.5,4.7 1.5,7.3 v 67.1 c 0,2.6 -0.5,5 -1.5,7.3 -1,2.3 -2.3,4.3 -4,6 -1.7,1.7 -3.7,3 -6,4 -2.3,1 -4.7,1.5 -7.3,1.5 h -22.5 c -1.4,0 -2.1,-0.7 -2.1,-2.1 V 46.5 c 0,-1.4 0.7,-2.1 2.1,-2.1 z"
   id="path30"
   inkscape:connector-curvature="0"
   style="fill:#ffffff" />
						</g>
					</g>
					<g
   id="Fill-17_23_"
   style="fill:#ffffff">
						<g
   id="g37"
   style="fill:#ffffff">
							<path
   class="st1"
   d="m 579.6,90.6 h 4.8 c 1,0 1.8,-0.3 2.5,-1 0.7,-0.7 1,-1.5 1,-2.5 v -23 c 0,-1 -0.4,-1.8 -1,-2.5 -0.7,-0.7 -1.6,-1.1 -2.5,-1.1 h -4.8 z m 28.9,56.6 c 0.3,1.4 -0.2,2.1 -1.5,2.1 h -13.6 c -0.6,0 -1.2,-0.2 -1.7,-0.6 -0.6,-0.4 -0.9,-0.9 -1.1,-1.5 l -10.9,-36.7 v 38.8 l -0.2,-1.5 c -0.2,1 -0.8,1.5 -1.9,1.5 h -13.3 c -1.4,0 -2.1,-0.7 -2.1,-2.1 V 46.5 c 0,-1.4 0.7,-2.1 2.1,-2.1 h 22.5 c 2.6,0 5,0.5 7.3,1.5 2.3,1 4.3,2.3 6,4 1.7,1.7 3,3.7 4,6 1,2.3 1.5,4.7 1.5,7.3 v 24.4 c 0,3.7 -1,7 -2.8,10 -1.9,2.9 -4.4,5.2 -7.5,6.8 z"
   id="path35"
   inkscape:connector-curvature="0"
   style="fill:#ffffff" />
						</g>
					</g>
					<g
   id="Fill-19_23_"
   style="fill:#ffffff">
						<g
   id="g42"
   style="fill:#ffffff">
							<path
   class="st1"
   d="m 638.8,63 c 0,-1 -0.4,-1.8 -1,-2.5 -0.7,-0.7 -1.5,-1 -2.5,-1 H 634 c -1,0 -1.8,0.4 -2.5,1 -0.7,0.7 -1,1.6 -1,2.5 v 67.7 c 0,1 0.3,1.8 1,2.5 0.7,0.7 1.5,1 2.5,1 h 1.2 c 1,0 1.8,-0.3 2.5,-1 0.7,-0.7 1,-1.5 1,-2.5 V 63 Z m 17.5,68.5 c 0,2.6 -0.5,5 -1.5,7.3 -1,2.3 -2.3,4.3 -4,6 -1.7,1.7 -3.7,3 -6,4 -2.3,1 -4.7,1.5 -7.3,1.5 h -5.7 c -2.6,0 -5,-0.5 -7.3,-1.5 -2.3,-1 -4.3,-2.3 -6,-4 -1.7,-1.7 -3,-3.7 -4,-6 -1,-2.3 -1.5,-4.7 -1.5,-7.3 V 62.3 c 0,-2.6 0.5,-5 1.5,-7.3 1,-2.3 2.3,-4.3 4,-6 1.7,-1.7 3.7,-3 6,-4 2.3,-1 4.7,-1.5 7.3,-1.5 h 5.7 c 2.6,0 5,0.5 7.3,1.5 2.3,1 4.3,2.3 6,4 1.7,1.7 3,3.7 4,6 1,2.3 1.5,4.7 1.5,7.3 z"
   id="path40"
   inkscape:connector-curvature="0"
   style="fill:#ffffff" />
						</g>
					</g>
					<g
   id="Fill-21_23_"
   style="fill:#ffffff">
						<g
   id="g47"
   style="fill:#ffffff">
							<path
   class="st1"
   d="m 690.2,64.1 c 0,-1 -0.4,-1.8 -1,-2.5 -0.7,-0.7 -1.6,-1.1 -2.5,-1.1 h -4.8 v 30.1 h 4.8 c 1,0 1.8,-0.3 2.5,-1 0.7,-0.7 1,-1.5 1,-2.5 z m -1.4,-19.7 c 2.6,0 5,0.5 7.3,1.5 2.3,1 4.3,2.4 6,4 1.7,1.7 3,3.7 4,6 1,2.3 1.5,4.7 1.5,7.3 v 24.4 c 0,2.6 -0.5,5 -1.5,7.3 -1,2.3 -2.3,4.3 -4,6 -1.7,1.7 -3.7,3 -6,4 -2.3,1 -4.7,1.5 -7.3,1.5 h -7 V 147 c 0,1.4 -0.7,2.1 -2.1,2.1 h -13.3 c -1.4,0 -2.1,-0.7 -2.1,-2.1 V 46.5 c 0,-1.4 0.7,-2.1 2.1,-2.1 z"
   id="path45"
   inkscape:connector-curvature="0"
   style="fill:#ffffff" />
						</g>
					</g>
				</g>
			</g>
		</g>
	</g>
	<path
   class="st1"
   d="m 141.3,104.6 -20.2,11.6 v 28.4 l 20.5,-11.5 c 2.5,-1.4 4,-4 4,-6.8 V 107 c 0,-0.5 -0.1,-1 -0.4,-1.4 -0.7,-1.3 -2.5,-1.8 -3.9,-1 z"
   id="path55"
   inkscape:connector-curvature="0"
   style="fill:#ffffff" />
	<path
   class="st1"
   d="m 170,53.4 -81.2,46.9 v 93.8 L 170,147.2 Z m -12.1,77.2 c 0,4.8 -2.6,9.3 -6.7,11.7 l -44,25.4 V 108.5 L 148,85 c 1,-0.6 2.2,-0.9 3.3,-0.9 3.7,0 6.6,3 6.6,6.7 z"
   id="path57"
   inkscape:connector-curvature="0"
   style="fill:#ffffff" />
	<path
   class="st1"
   d="M 166.2,46.9 85,0 3.8,46.9 85,93.8 Z M 75.5,48.6 C 66.4,48.6 59,44.4 59,39.4 c 0,-5.1 7.4,-9.2 16.5,-9.2 9.1,0 16.5,4.1 16.5,9.2 0,1 -0.3,2 -0.8,2.9 l 25,9.2 -17.2,9.8 -19.9,-13 c -1.2,0.2 -2.4,0.3 -3.6,0.3 z"
   id="path59"
   inkscape:connector-curvature="0"
   style="fill:#ffffff" />
	<path
   class="st1"
   d="m 0,53.4 v 93.8 l 81.2,46.9 V 100.3 Z M 62.6,165.8 17.2,139.6 V 125 l 31.1,18 v -6.7 L 17.2,118.4 V 82.9 l 45.4,26.2 v 14.2 L 29.5,104.2 v 6.7 L 62.6,130 Z"
   id="path61"
   inkscape:connector-curvature="0"
   style="fill:#ffffff" />
</g>
</svg>