<?xml version="1.0" encoding="UTF-8"?>
<!-- Generator: Adobe Illustrator 22.1.0, SVG Export Plug-In . SVG Version: 6.00 Build 0)  -->
<svg version="1.1" id="Layer_1" xmlns="http://www.w3.org/2000/svg" xmlns:xlink="http://www.w3.org/1999/xlink" x="0px" y="0px" width="711.5px" height="205.1px" viewBox="0 0 711.5 205.1" style="enable-background:new 0 0 711.5 205.1;" xml:space="preserve">
<style type="text/css">
	.st0{fill:#034482;}
	.st1{fill:#2E8AE8;}
	.st2{fill:#045FB4;}
	.st3{fill:none;}
</style>
<g>
	<g id="Symbols_7_">
		<g>
			<g id="Logo_x2F_White-Text_12_">
				<g id="SD-Logo_12_">
					<g id="Group-3_12_" transform="translate(0.000000, 0.633400)">
						<g id="Fill-1_14_">
							<path class="st0" d="M253.6,48.7c2.3,1,4.3,2.3,6,4s3,3.7,4,6s1.5,4.7,1.5,7.3v5.7c0,1.4-0.6,2.3-1.9,2.7L249.6,78         c-1.3,0.4-1.9-0.1-1.9-1.5v-9.7c0-1-0.4-1.8-1-2.5c-0.7-0.7-1.5-1-2.5-1H243c-1,0-1.8,0.4-2.5,1c-0.7,0.7-1,1.6-1,2.5v13.6         c0.1,1.1,0.3,2,0.6,2.8s0.8,1.6,1.6,2.4l19.6,14.7c1.6,1.4,2.6,2.8,3.1,4.3c0.5,1.4,0.8,3.1,1,4.9v25.8c0,2.6-0.5,5-1.5,7.3         s-2.3,4.3-4,6s-3.7,3-6,4c-2.3,1-4.7,1.5-7.3,1.5h-5.7c-2.6,0-5-0.5-7.3-1.5s-4.3-2.3-6-4s-3-3.7-4-6s-1.5-4.7-1.5-7.3v-14.4         c0-1.4,0.6-2.3,1.9-2.7l13.6-3.6c1.3-0.4,1.9,0.1,1.9,1.5v18.4c0,1,0.3,1.8,1,2.5s1.5,1,2.5,1h1.2c1,0,1.8-0.3,2.5-1         s1-1.5,1-2.5v-19.8c-0.1-1.3-0.3-2.4-0.6-3.4s-0.9-1.9-1.8-2.7L226,93.8c-1.5-1.4-2.6-2.8-3.2-4.2c-0.7-1.4-1-3.2-1-5.5V66         c0-2.6,0.5-5,1.5-7.3s2.3-4.3,4-6s3.7-3,6-4s4.7-1.5,7.3-1.5h5.7C248.9,47.2,251.3,47.7,253.6,48.7"/>
						</g>
					</g>
					<g id="Fill-4_14_">
						<path class="st0" d="M309.1,138.3v13.3c0,1.4-0.7,2.1-2.1,2.1h-32.5c-1.4,0-2.1-0.7-2.1-2.1V50.9c0-1.4,0.7-2.1,2.1-2.1H307        c1.4,0,2.1,0.7,2.1,2.1v13.3c0,1.4-0.7,2.1-2.1,2.1h-17.1v21.6h14.8c1.4,0,2.1,0.7,2.1,2.1v13.3c0,1.4-0.7,2.1-2.1,2.1h-14.8        v30.7H307C308.4,136.2,309.1,136.9,309.1,138.3"/>
					</g>
					<g id="Group-8_12_" transform="translate(61.000000, 0.633400)">
						<g id="Fill-6_14_">
							<path class="st0" d="M287.2,48.7c2.3,1,4.3,2.3,6,4s3,3.7,4,6s1.5,4.7,1.5,7.3v12c0,1.4-0.7,2.3-1.9,2.7l-13.6,2.1         c-1.3,0.4-1.9-0.1-1.9-1.5V66.8c0-1-0.4-1.8-1.1-2.5c-0.7-0.7-1.6-1-2.5-1h-1.2c-1,0-1.8,0.4-2.5,1c-0.7,0.7-1,1.6-1,2.5         v67.7c0,1,0.3,1.8,1,2.5s1.5,1,2.5,1h1.2c1,0,1.8-0.3,2.5-1s1.1-1.5,1.1-2.5v-21c0-1.4,0.6-1.9,1.9-1.5l13.6,1.8         c1.3,0.4,1.9,1.3,1.9,2.7v18.7c0,2.6-0.5,5-1.5,7.3s-2.4,4.3-4,6c-1.7,1.7-3.7,3-6,4s-4.7,1.5-7.3,1.5h-5.7         c-2.6,0-5-0.5-7.3-1.5s-4.3-2.3-6-4s-3-3.7-4-6s-1.5-4.7-1.5-7.3V66c0-2.6,0.5-5,1.5-7.3s2.3-4.3,4-6s3.7-3,6-4         s4.7-1.5,7.3-1.5h5.7C282.4,47.2,284.9,47.7,287.2,48.7"/>
						</g>
					</g>
					<g id="Fill-9_14_">
						<path class="st0" d="M408.8,50.9v85c0,2.6-0.5,5-1.5,7.3s-2.3,4.3-4,6s-3.7,3-6,4s-4.7,1.5-7.3,1.5h-5.7c-2.6,0-5-0.5-7.3-1.5        s-4.3-2.3-6-4s-3-3.7-4-6s-1.5-4.7-1.5-7.3v-85c0-1.4,0.7-2.1,2.1-2.1h13.3c1.4,0,2.1,0.7,2.1,2.1v84.2c0,1,0.3,1.8,1,2.5        s1.5,1,2.5,1h1.2c1,0,1.8-0.3,2.5-1s1-1.5,1-2.5V50.9c0-1.4,0.7-2.1,2.1-2.1h13.3C408.1,48.8,408.8,49.5,408.8,50.9"/>
					</g>
					<g id="Fill-11_14_">
						<g>
							<path class="st0" d="M434.3,95h4.8c1,0,1.8-0.3,2.5-1s1-1.5,1-2.5v-23c0-1-0.4-1.8-1-2.5c-0.7-0.7-1.6-1.1-2.5-1.1h-4.8V95z          M463.2,151.6c0.3,1.4-0.2,2.1-1.5,2.1h-13.6c-0.6,0-1.2-0.2-1.7-0.6c-0.6-0.4-0.9-0.9-1.1-1.5l-10.9-36.7v38.8l-0.2-1.5         c-0.2,1-0.8,1.5-1.9,1.5H419c-1.4,0-2.1-0.7-2.1-2.1V50.9c0-1.4,0.7-2.1,2.1-2.1h22.5c2.6,0,5,0.5,7.3,1.5s4.3,2.3,6,4         s3,3.7,4,6s1.5,4.7,1.5,7.3V92c0,3.7-1,7-2.8,10c-1.9,2.9-4.4,5.2-7.5,6.8L463.2,151.6z"/>
						</g>
					</g>
					<g id="Fill-13_14_">
						<path class="st0" d="M505.8,138.3v13.3c0,1.4-0.7,2.1-2.1,2.1h-32.5c-1.4,0-2.1-0.7-2.1-2.1V50.9c0-1.4,0.7-2.1,2.1-2.1h32.5        c1.4,0,2.1,0.7,2.1,2.1v13.3c0,1.4-0.7,2.1-2.1,2.1h-17.1v21.6h14.8c1.4,0,2.1,0.7,2.1,2.1v13.3c0,1.4-0.7,2.1-2.1,2.1h-14.8        v30.7h17.1C505.1,136.2,505.8,136.9,505.8,138.3"/>
					</g>
					<path id="Fill-15_14_" class="st1" d="M540.4,68.5c0-1-0.4-1.8-1.1-2.5c-0.7-0.7-1.5-1.1-2.5-1.1H532v72.8h4.8       c1,0,1.8-0.4,2.5-1c0.7-0.7,1.1-1.5,1.1-2.5L540.4,68.5L540.4,68.5z M539,48.8c2.6,0,5,0.5,7.3,1.5s4.3,2.4,6,4       c1.7,1.7,3,3.7,4,6s1.5,4.7,1.5,7.3v67.1c0,2.6-0.5,5-1.5,7.3s-2.3,4.3-4,6s-3.7,3-6,4s-4.7,1.5-7.3,1.5h-22.5       c-1.4,0-2.1-0.7-2.1-2.1V50.9c0-1.4,0.7-2.1,2.1-2.1C516.5,48.8,539,48.8,539,48.8z"/>
					<path id="Fill-17_14_" class="st1" d="M583.4,95h4.8c1,0,1.8-0.3,2.5-1s1-1.5,1-2.5v-23c0-1-0.4-1.8-1-2.5       c-0.7-0.7-1.6-1.1-2.5-1.1h-4.8V95z M612.3,151.6c0.3,1.4-0.2,2.1-1.5,2.1h-13.6c-0.6,0-1.2-0.2-1.7-0.6       c-0.6-0.4-0.9-0.9-1.1-1.5l-10.9-36.7v38.8l-0.2-1.5c-0.2,1-0.8,1.5-1.9,1.5h-13.3c-1.4,0-2.1-0.7-2.1-2.1V50.9       c0-1.4,0.7-2.1,2.1-2.1h22.5c2.6,0,5,0.5,7.3,1.5s4.3,2.3,6,4s3,3.7,4,6s1.5,4.7,1.5,7.3V92c0,3.7-1,7-2.8,10       c-1.9,2.9-4.4,5.2-7.5,6.8L612.3,151.6z"/>
					<path id="Fill-19_14_" class="st1" d="M642.6,67.4c0-1-0.4-1.8-1-2.5c-0.7-0.7-1.5-1-2.5-1h-1.2c-1,0-1.8,0.4-2.5,1       c-0.7,0.7-1,1.6-1,2.5v67.7c0,1,0.3,1.8,1,2.5s1.5,1,2.5,1h1.2c1,0,1.8-0.3,2.5-1s1-1.5,1-2.5V67.4z M660.1,135.9       c0,2.6-0.5,5-1.5,7.3s-2.3,4.3-4,6s-3.7,3-6,4s-4.7,1.5-7.3,1.5h-5.7c-2.6,0-5-0.5-7.3-1.5s-4.3-2.3-6-4s-3-3.7-4-6       s-1.5-4.7-1.5-7.3V66.7c0-2.6,0.5-5,1.5-7.3s2.3-4.3,4-6s3.7-3,6-4s4.7-1.5,7.3-1.5h5.7c2.6,0,5,0.5,7.3,1.5s4.3,2.3,6,4       s3,3.7,4,6s1.5,4.7,1.5,7.3V135.9z"/>
					<path id="Fill-21_14_" class="st1" d="M693.9,68.5c0-1-0.4-1.8-1-2.5c-0.7-0.7-1.6-1.1-2.5-1.1h-4.8V95h4.8c1,0,1.8-0.3,2.5-1       s1-1.5,1-2.5V68.5z M692.6,48.8c2.6,0,5,0.5,7.3,1.5s4.3,2.4,6,4c1.7,1.7,3,3.7,4,6s1.5,4.7,1.5,7.3V92c0,2.6-0.5,5-1.5,7.3       s-2.3,4.3-4,6s-3.7,3-6,4s-4.7,1.5-7.3,1.5h-7v40.6c0,1.4-0.7,2.1-2.1,2.1h-13.3c-1.4,0-2.1-0.7-2.1-2.1V50.9       c0-1.4,0.7-2.1,2.1-2.1C670.2,48.8,692.6,48.8,692.6,48.8z"/>
				</g>
			</g>
		</g>
	</g>
	<g>
		<path class="st2" d="M88.8,205.1V102.5l88.8-51.3v102.5L88.8,205.1z M155,146.7c4.2-2.4,6.7-6.9,6.7-11.7V95.1    c0-3.7-3-6.7-6.6-6.7c-1.2,0-2.3,0.3-3.3,0.9L111,112.9v59.2L155,146.7z M124.9,120.6l20.2-11.6c1.4-0.8,3.2-0.3,4,1.1    c0.2,0.4,0.4,0.9,0.4,1.4v19.3c0,2.8-1.5,5.4-4,6.8L124.9,149V120.6z"/>
		<path class="st1" d="M88.8,102.5L0,51.3L88.8,0l88.8,51.3L88.8,102.5z M102.8,65.7l17.2-9.9l-25-9.2c0.5-0.9,0.8-1.9,0.8-2.9    c0-5.1-7.4-9.2-16.5-9.2s-16.5,4.2-16.5,9.2s7.4,9.2,16.5,9.2c1.2,0,2.4-0.1,3.6-0.2L102.8,65.7z"/>
		<g>
			<polygon class="st3" points="66.4,134.4 33.3,115.4 33.3,108.6 66.3,127.7 66.4,113.5 20.9,87.3 20.9,122.7 52,140.7 52,147.3      20.9,129.4 20.9,143.9 66.4,170.2    "/>
			<path class="st0" d="M0,153.8l88.8,51.3V102.5L0,51.3V153.8z M20.9,129.4l31.1,18v-6.7l-31.1-18V87.3l45.4,26.2v14.2l-33.1-19.1     v6.7l33.1,19.1v35.7l-45.4-26.2C20.9,143.9,20.9,129.4,20.9,129.4z"/>
		</g>
	</g>
</g>
</svg>